<?xml version="1.0" encoding="UTF-8"?>
<svg width="1440" height="180" viewBox="0 0 1440 180" fill="none" xmlns="http://www.w3.org/2000/svg">
  <path d="M0 72L60 84C120 96 240 120 360 132C480 144 600 144 720 120C840 96 960 48 1080 36C1200 24 1320 48 1380 60L1440 72V180H1380C1320 180 1200 180 1080 180C960 180 840 180 720 180C600 180 480 180 360 180C240 180 120 180 60 180H0V72Z" fill="url(#paint0_linear_1_2)"/>
  <defs>
    <linearGradient id="paint0_linear_1_2" x1="720" y1="36" x2="720" y2="180" gradientUnits="userSpaceOnUse">
      <stop stop-color="#8B5CF6"/>
      <stop offset="1" stop-color="#3B82F6"/>
    </linearGradient>
  </defs>
</svg>
